<mxfile host="65bd71144e">
    <diagram id="fizG2IXzLv_NUs-epRs5" name="Page-1">
        <mxGraphModel dx="282" dy="233" grid="0" gridSize="10" guides="1" tooltips="1" connect="1" arrows="1" fold="1" page="0" pageScale="1" pageWidth="850" pageHeight="1100" background="none" math="0" shadow="0">
            <root>
                <mxCell id="0"/>
                <mxCell id="1" parent="0"/>
                <mxCell id="2" value="" style="endArrow=none;html=1;strokeWidth=3;" parent="1" edge="1">
                    <mxGeometry width="50" height="50" relative="1" as="geometry">
                        <mxPoint x="180" y="225" as="sourcePoint"/>
                        <mxPoint x="230" y="175" as="targetPoint"/>
                    </mxGeometry>
                </mxCell>
                <mxCell id="3" value="" style="endArrow=none;html=1;strokeWidth=3;" parent="1" edge="1">
                    <mxGeometry width="50" height="50" relative="1" as="geometry">
                        <mxPoint x="220" y="225" as="sourcePoint"/>
                        <mxPoint x="270" y="175" as="targetPoint"/>
                    </mxGeometry>
                </mxCell>
                <mxCell id="4" value="" style="endArrow=none;html=1;strokeWidth=3;" parent="1" edge="1">
                    <mxGeometry width="50" height="50" relative="1" as="geometry">
                        <mxPoint x="144" y="200.9523809523812" as="sourcePoint"/>
                        <mxPoint x="204" y="200.9523809523812" as="targetPoint"/>
                    </mxGeometry>
                </mxCell>
                <mxCell id="5" value="" style="endArrow=none;html=1;strokeWidth=3;" parent="1" edge="1">
                    <mxGeometry width="50" height="50" relative="1" as="geometry">
                        <mxPoint x="244" y="200.9523809523812" as="sourcePoint"/>
                        <mxPoint x="304" y="200.9523809523812" as="targetPoint"/>
                    </mxGeometry>
                </mxCell>
                <mxCell id="6" value="" style="endArrow=block;startArrow=block;html=1;startFill=1;endFill=1;strokeColor=#666666;" parent="1" edge="1">
                    <mxGeometry width="50" height="50" relative="1" as="geometry">
                        <mxPoint x="205" y="269" as="sourcePoint"/>
                        <mxPoint x="245" y="269" as="targetPoint"/>
                    </mxGeometry>
                </mxCell>
                <mxCell id="7" value="" style="endArrow=none;dashed=1;html=1;strokeWidth=2;strokeColor=#666666;exitX=0.188;exitY=1.063;exitDx=0;exitDy=0;exitPerimeter=0;" parent="1" edge="1" source="14">
                    <mxGeometry width="50" height="50" relative="1" as="geometry">
                        <mxPoint x="205" y="291" as="sourcePoint"/>
                        <mxPoint x="205" y="201" as="targetPoint"/>
                    </mxGeometry>
                </mxCell>
                <mxCell id="8" value="" style="endArrow=none;dashed=1;html=1;strokeWidth=2;strokeColor=#666666;exitX=0.85;exitY=1.083;exitDx=0;exitDy=0;exitPerimeter=0;" parent="1" edge="1" source="14">
                    <mxGeometry width="50" height="50" relative="1" as="geometry">
                        <mxPoint x="245" y="290" as="sourcePoint"/>
                        <mxPoint x="245" y="200" as="targetPoint"/>
                    </mxGeometry>
                </mxCell>
                <mxCell id="10" value="" style="endArrow=none;dashed=1;html=1;strokeWidth=2;strokeColor=#666666;" parent="1" edge="1">
                    <mxGeometry width="50" height="50" relative="1" as="geometry">
                        <mxPoint x="270" y="265" as="sourcePoint"/>
                        <mxPoint x="270" y="175" as="targetPoint"/>
                    </mxGeometry>
                </mxCell>
                <mxCell id="11" value="" style="endArrow=none;dashed=1;html=1;strokeWidth=2;strokeColor=#666666;" parent="1" edge="1">
                    <mxGeometry width="50" height="50" relative="1" as="geometry">
                        <mxPoint x="323" y="175" as="sourcePoint"/>
                        <mxPoint x="263" y="175" as="targetPoint"/>
                    </mxGeometry>
                </mxCell>
                <mxCell id="12" value="" style="endArrow=block;startArrow=block;html=1;startFill=1;endFill=1;exitX=0.876;exitY=0.001;exitDx=0;exitDy=0;exitPerimeter=0;strokeColor=#666666;" parent="1" edge="1">
                    <mxGeometry width="50" height="50" relative="1" as="geometry">
                        <mxPoint x="246.55999999999995" y="249.02999999999997" as="sourcePoint"/>
                        <mxPoint x="270" y="249" as="targetPoint"/>
                    </mxGeometry>
                </mxCell>
                <mxCell id="13" value="dx" style="text;html=1;align=center;verticalAlign=middle;whiteSpace=wrap;rounded=0;strokeColor=none;fontColor=#666666;" parent="1" vertex="1">
                    <mxGeometry x="227" y="221" width="60" height="30" as="geometry"/>
                </mxCell>
                <mxCell id="14" value="gap" style="text;html=1;align=center;verticalAlign=middle;whiteSpace=wrap;rounded=0;strokeColor=none;fontColor=#666666;" parent="1" vertex="1">
                    <mxGeometry x="194" y="243" width="60" height="30" as="geometry"/>
                </mxCell>
                <mxCell id="16" value="" style="endArrow=block;startArrow=block;html=1;startFill=1;endFill=1;entryX=0;entryY=1;entryDx=0;entryDy=0;strokeColor=#666666;" parent="1" edge="1">
                    <mxGeometry width="50" height="50" relative="1" as="geometry">
                        <mxPoint x="300" y="175" as="sourcePoint"/>
                        <mxPoint x="300" y="200" as="targetPoint"/>
                    </mxGeometry>
                </mxCell>
                <mxCell id="17" value="dy" style="text;html=1;align=center;verticalAlign=middle;whiteSpace=wrap;rounded=0;fontColor=#666666;" parent="1" vertex="1">
                    <mxGeometry x="285" y="170" width="60" height="30" as="geometry"/>
                </mxCell>
                <mxCell id="18" value="unit in pt (1/72 inch)" style="text;html=1;align=center;verticalAlign=middle;whiteSpace=wrap;rounded=0;" parent="1" vertex="1">
                    <mxGeometry x="134" y="230" width="60" height="30" as="geometry"/>
                </mxCell>
                <mxCell id="19" value="" style="ellipse;whiteSpace=wrap;html=1;aspect=fixed;fillColor=#f8cecc;strokeColor=#b85450;" vertex="1" parent="1">
                    <mxGeometry x="221.5" y="199" width="5" height="5" as="geometry"/>
                </mxCell>
                <mxCell id="20" value="" style="endArrow=blockThin;html=1;entryX=0;entryY=0;entryDx=0;entryDy=0;endFill=1;strokeColor=#B3B3B3;dashed=1;" edge="1" parent="1" target="19">
                    <mxGeometry width="50" height="50" relative="1" as="geometry">
                        <mxPoint x="182" y="175" as="sourcePoint"/>
                        <mxPoint x="265" y="223" as="targetPoint"/>
                    </mxGeometry>
                </mxCell>
                <mxCell id="21" value="broken position" style="text;html=1;align=center;verticalAlign=middle;whiteSpace=wrap;rounded=0;strokeColor=none;" vertex="1" parent="1">
                    <mxGeometry x="134" y="159" width="60" height="30" as="geometry"/>
                </mxCell>
            </root>
        </mxGraphModel>
    </diagram>
</mxfile>